<svg width="320" height="286" viewBox="0 0 320 286" fill="none" xmlns="http://www.w3.org/2000/svg">
<path d="M14.8669 172.044C15.1361 170.23 16.5128 163.298 16.6472 163.079C16.6866 163.015 16.8173 162.435 16.9373 161.789C17.0573 161.143 17.234 160.311 17.3295 159.94C17.6483 158.702 18.0227 157.33 18.4263 155.919C18.6466 155.149 18.96 154.003 19.123 153.37C19.2854 152.738 19.5469 151.816 19.7039 151.321C19.8609 150.826 20.2334 149.646 20.5325 148.698C20.831 147.75 21.2674 146.435 21.5021 145.775C21.7361 145.115 22.1349 143.968 22.388 143.227C22.9116 141.69 23.0436 141.336 24.3928 137.83C24.9331 136.429 25.4746 135.091 25.5976 134.858C25.7206 134.624 25.8209 134.365 25.8209 134.282C25.8209 134.142 26.1624 133.336 27.3027 130.785C28.3898 128.355 31.7063 121.556 32.3851 120.367C32.9092 119.449 33.2179 118.888 34.4167 116.673C34.6901 116.167 35.32 115.107 35.8155 114.317C36.311 113.527 36.7164 112.839 36.7164 112.789C36.7164 112.739 37.1194 112.096 37.6119 111.362C38.1045 110.627 38.5074 109.989 38.5074 109.944C38.5074 109.899 38.7648 109.51 39.0788 109.081C39.3928 108.652 39.8418 107.964 40.0764 107.551C40.3104 107.139 40.8131 106.397 41.1928 105.902C41.5719 105.408 42.1277 104.625 42.4274 104.164C42.7266 103.702 43.1928 103.045 43.4633 102.703C43.7337 102.362 44.3582 101.537 44.8507 100.871C46.6489 98.44 49.0925 95.4615 52.1421 91.9851C52.5648 91.5033 52.9654 91.012 53.0322 90.8931C53.0997 90.7749 53.1474 76.3624 53.1397 58.8651C53.1277 33.2191 53.1618 27.0012 53.3164 26.7905C53.4979 26.5433 59.0006 26.5296 160.589 26.5308C246.026 26.532 267.693 26.5702 267.787 26.7194C267.853 26.8221 267.907 41.3194 267.908 58.9355L267.91 90.9648L267.5 91.2842C266.841 91.797 265.838 92.5188 264.478 93.4597C263.78 93.9427 262.773 94.6424 262.239 95.0161C260.315 96.3624 254.078 100.528 252.91 101.248C252.254 101.652 251.481 102.165 251.194 102.388C250.907 102.611 250.436 102.927 250.149 103.089C249.862 103.251 248.653 103.991 247.463 104.733C246.272 105.475 244.744 106.413 244.067 106.817C243.389 107.221 242.381 107.826 241.828 108.162C241.274 108.497 240.149 109.131 239.328 109.571C238.507 110.01 237.5 110.586 237.09 110.851C236.679 111.115 236.041 111.492 235.672 111.688C235.302 111.884 234.093 112.556 232.985 113.182C231.877 113.807 229.828 114.896 228.433 115.602C227.038 116.307 225.694 116.993 225.448 117.125C224.224 117.782 219.96 119.837 218.684 120.384C217.889 120.724 217.038 121.095 216.791 121.207C215.479 121.802 211.315 123.475 209.925 123.964C209.515 124.108 208.373 124.544 207.388 124.932C204.745 125.973 202.95 126.524 198.881 127.546C194.62 128.616 194.118 128.729 193.209 128.83C192.716 128.884 191.81 129.036 191.194 129.168C189.545 129.521 181.363 129.531 180.075 129.182C179.582 129.048 178.843 128.891 178.433 128.832C178.023 128.773 177.418 128.607 177.09 128.463C176.761 128.319 176.022 128.015 175.448 127.787C173.077 126.848 171.937 125.937 170.644 123.947C169.736 122.55 168.744 120.046 168.519 118.584C168.425 117.974 168.313 117.417 168.269 117.346C168.009 116.923 167.873 112.784 167.768 102.005C167.697 94.6896 167.582 89.2675 167.479 88.3642C167.26 86.4508 166.736 83.572 166.481 82.8931C166.373 82.6048 166.24 82.1326 166.185 81.8436C166.056 81.166 165.484 79.4084 165.11 78.5463C164.092 76.1929 161.53 72.9564 159.759 71.7863C159.44 71.5755 158.91 71.2257 158.582 71.0096C157.509 70.3015 155.548 69.5242 153.134 68.849C151.719 68.4531 144.767 68.4561 142.687 68.8532C139.097 69.5385 135.864 70.2961 134.478 70.7779C133.78 71.0203 132.907 71.3117 132.537 71.4251C131.954 71.6042 130.949 71.9517 127.537 73.1534C126.845 73.397 126.325 73.6149 123.06 75.0323C122.403 75.317 121.824 75.5499 121.773 75.5493C121.681 75.5481 115.427 78.5582 114.851 78.8806C114.687 78.9726 113.666 79.5057 112.582 80.0645C109.996 81.3982 108.633 82.1433 108.358 82.3726C108.235 82.4752 107.765 82.7433 107.313 82.9684C106.309 83.4687 102.696 85.5994 100.672 86.8848C99.8507 87.4066 98.3057 88.3839 97.2388 89.0579C96.1719 89.7314 94.8286 90.6137 94.2537 91.0179C93.6788 91.4227 92.1677 92.4454 90.8955 93.2914C88.0639 95.1731 86.2674 96.4149 85.351 97.1224C84.9689 97.4167 84.2973 97.9128 83.8585 98.2239C83.0173 98.8197 82.806 98.9797 80.1158 101.055C79.1898 101.769 77.7946 102.838 77.0149 103.432C76.2352 104.025 75.4185 104.679 75.2006 104.884C74.9821 105.089 74.2651 105.672 73.6077 106.179C72.148 107.304 68.6388 110.156 68.4328 110.384C68.3504 110.475 67.8806 110.883 67.388 111.291C66.8955 111.699 66.1874 112.306 65.8143 112.64C65.4412 112.974 64.7379 113.584 64.2513 113.997C58.8889 118.542 48.4925 128.804 41.92 136.039C40.8006 137.272 39.6949 138.516 39.4627 138.805C39.231 139.093 38.5325 139.903 37.911 140.604C37.2889 141.304 36.4806 142.248 36.1146 142.702C35.7486 143.155 35.3743 143.594 35.2836 143.676C35.1922 143.759 34.7051 144.366 34.2006 145.026C33.6967 145.685 32.8477 146.731 32.3146 147.349C31.7821 147.967 31.3457 148.547 31.3445 148.637C31.3439 148.727 31.2018 148.93 31.0286 149.087C30.6466 149.433 27.1003 154.1 25.9958 155.709C25.5588 156.346 24.7206 157.535 24.1331 158.35C23.5463 159.167 22.997 159.952 22.9134 160.096C22.8298 160.241 22.4412 160.821 22.0495 161.386C21.6579 161.951 21.1254 162.75 20.8657 163.163C20.6066 163.575 20.2048 164.202 19.9731 164.557C19.7421 164.912 19.5522 165.242 19.5522 165.293C19.5522 165.343 19.2943 165.728 18.9797 166.147C18.6645 166.567 17.9522 167.72 17.397 168.709C15.9713 171.25 15.0764 172.681 14.9128 172.681C14.8328 172.681 14.8125 172.41 14.8669 172.044Z" fill="url(#paint0_linear_1117_15467)"/>
<path d="M288.433 77.3177C288.184 79.132 286.911 86.064 286.787 86.2831C286.75 86.347 286.629 86.9273 286.519 87.5732C286.408 88.2186 286.244 89.0509 286.156 89.4216C285.861 90.6598 285.515 92.0317 285.142 93.4431C284.938 94.2126 284.649 95.3589 284.498 95.9918C284.348 96.624 284.106 97.5464 283.961 98.0407C283.816 98.5356 283.471 99.7159 283.195 100.664C282.919 101.612 282.516 102.927 282.299 103.587C282.082 104.247 281.714 105.394 281.48 106.135C280.996 107.672 280.874 108.026 279.626 111.531C279.127 112.933 278.626 114.271 278.512 114.504C278.399 114.737 278.306 114.997 278.306 115.079C278.306 115.22 277.99 116.026 276.936 118.577C275.931 121.007 272.865 127.805 272.238 128.995C271.753 129.913 271.468 130.474 270.36 132.688C270.107 133.195 269.525 134.255 269.066 135.045C268.608 135.835 268.234 136.522 268.234 136.573C268.234 136.623 267.861 137.266 267.406 138C266.95 138.735 266.578 139.373 266.578 139.418C266.578 139.463 266.34 139.851 266.05 140.281C265.759 140.71 265.344 141.398 265.127 141.811C264.911 142.223 264.446 142.965 264.095 143.46C263.745 143.954 263.231 144.737 262.954 145.198C262.678 145.66 262.247 146.317 261.996 146.659C261.746 147 261.169 147.825 260.714 148.491C259.051 150.922 256.793 153.9 253.973 157.377C253.583 157.859 253.212 158.35 253.15 158.469C253.088 158.587 253.044 173 253.051 190.497C253.062 216.143 253.031 222.361 252.888 222.571C252.72 222.819 112.5 224.5 112.5 224.5C112.5 224.5 53.9876 279.564 53.9004 279.415C53.8402 279.312 54.5087 208.043 54.5076 190.426L54.5054 158.397L54.8851 158.078C55.4939 157.565 56.4211 156.843 57.6789 155.902C58.3241 155.419 59.2552 154.72 59.7486 154.346C61.5268 153 67.2927 148.834 68.3722 148.114C68.9793 147.71 69.6935 147.197 69.959 146.974C70.2244 146.751 70.6593 146.435 70.9248 146.273C71.1903 146.111 72.3079 145.371 73.4084 144.629C74.5089 143.887 75.9213 142.949 76.5477 142.545C77.1747 142.141 78.1057 141.536 78.6174 141.2C79.1295 140.865 80.1693 140.231 80.9282 139.791C81.6871 139.352 82.6187 138.776 82.9979 138.511C83.3771 138.247 83.9671 137.87 84.3087 137.674C84.6503 137.478 85.7679 136.805 86.7923 136.18C87.8166 135.555 89.7108 134.466 91.0006 133.76C92.2904 133.055 93.5323 132.369 93.7602 132.237C94.8911 131.58 98.8334 129.525 100.013 128.978C100.748 128.638 101.535 128.267 101.763 128.155C102.975 127.559 106.825 125.887 108.11 125.398C108.489 125.254 109.545 124.818 110.456 124.43C112.899 123.389 114.558 122.838 118.32 121.816C122.259 120.746 122.723 120.633 123.563 120.532C124.019 120.478 124.857 120.325 125.426 120.194C126.951 119.841 134.515 119.831 135.706 120.18C136.161 120.314 136.844 120.471 137.223 120.53C137.603 120.589 138.162 120.755 138.465 120.899C138.769 121.043 139.452 121.347 139.983 121.575C142.175 122.514 143.229 123.425 144.424 125.414C145.264 126.812 146.18 129.316 146.388 130.778C146.475 131.388 146.579 131.945 146.62 132.016C146.86 132.439 146.985 136.577 147.082 147.357C147.148 154.672 147.254 160.094 147.35 160.998C147.552 162.911 148.036 165.79 148.272 166.469C148.372 166.757 148.495 167.229 148.546 167.518C148.665 168.196 149.194 169.954 149.539 170.816C150.481 173.169 152.849 176.405 154.487 177.576C154.781 177.786 155.271 178.136 155.574 178.352C156.567 179.06 158.379 179.838 160.611 180.513C161.919 180.909 168.346 180.906 170.269 180.509C173.588 179.823 176.576 179.066 177.858 178.584C178.503 178.342 179.31 178.05 179.652 177.937C180.191 177.758 181.12 177.41 184.274 176.208C184.914 175.965 185.394 175.747 188.413 174.33C189.02 174.045 189.556 173.812 189.603 173.813C189.688 173.814 195.469 170.804 196.002 170.481C196.154 170.389 197.098 169.856 198.099 169.297C200.49 167.964 201.75 167.219 202.004 166.989C202.118 166.887 202.553 166.619 202.97 166.394C203.899 165.893 207.238 163.762 209.11 162.477C209.869 161.955 211.297 160.978 212.283 160.304C213.27 159.631 214.512 158.748 215.043 158.344C215.575 157.939 216.971 156.917 218.148 156.071C220.765 154.189 222.426 152.947 223.273 152.239C223.626 151.945 224.247 151.449 224.653 151.138C225.431 150.542 225.626 150.382 228.113 148.307C228.969 147.593 230.259 146.524 230.98 145.93C231.7 145.337 232.455 144.683 232.657 144.478C232.859 144.273 233.522 143.69 234.129 143.183C235.479 142.058 238.723 139.206 238.913 138.978C238.989 138.887 239.424 138.479 239.879 138.071C240.334 137.663 240.989 137.056 241.334 136.722C241.679 136.388 242.329 135.777 242.779 135.365C247.736 130.82 257.347 120.558 263.423 113.322C264.458 112.09 265.48 110.845 265.695 110.557C265.909 110.269 266.555 109.459 267.129 108.758C267.704 108.057 268.452 107.114 268.79 106.66C269.128 106.207 269.474 105.768 269.558 105.685C269.643 105.603 270.093 104.996 270.559 104.336C271.025 103.677 271.81 102.631 272.303 102.013C272.795 101.395 273.199 100.815 273.2 100.725C273.2 100.635 273.332 100.432 273.492 100.275C273.845 99.9285 277.123 95.2622 278.144 93.6532C278.548 93.0162 279.323 91.827 279.866 91.0114C280.409 90.1953 280.917 89.4096 280.994 89.2658C281.071 89.1213 281.43 88.541 281.793 87.9756C282.155 87.4109 282.647 86.6114 282.887 86.1989C283.126 85.787 283.498 85.1595 283.712 84.8049C283.926 84.4503 284.101 84.1195 284.101 84.0688C284.101 84.0186 284.34 83.6341 284.63 83.2144C284.922 82.7947 285.58 81.6419 286.094 80.6526C287.412 78.1117 288.239 76.6807 288.39 76.6807C288.464 76.6807 288.483 76.9523 288.433 77.3177Z" fill="url(#paint1_linear_1117_15467)"/>
<defs>
<linearGradient id="paint0_linear_1117_15467" x1="141.373" y1="26.5307" x2="143.5" y2="117" gradientUnits="userSpaceOnUse">
<stop stop-color="#2563EB"/>
<stop offset="1" stop-color="#274690"/>
</linearGradient>
<linearGradient id="paint1_linear_1117_15467" x1="171.179" y1="279.415" x2="171.179" y2="76.6807" gradientUnits="userSpaceOnUse">
<stop stop-color="#2563EB"/>
<stop offset="0.557692" stop-color="#274690"/>
</linearGradient>
</defs>
</svg>